<svg width="11" height="11" viewBox="0 0 11 11" fill="none" xmlns="http://www.w3.org/2000/svg">
<path d="M9.03633 2.42076L5.59883 1.38951C5.54751 1.37411 5.49329 1.37091 5.44052 1.38019C5.38774 1.38946 5.33786 1.41094 5.29487 1.44292C5.25187 1.47489 5.21694 1.51648 5.19287 1.56435C5.16881 1.61223 5.15627 1.66507 5.15625 1.71865V6.37045C4.80421 6.05558 4.35476 5.87107 3.88303 5.84776C3.41129 5.82445 2.94585 5.96376 2.56448 6.2424C2.18312 6.52104 1.90894 6.92213 1.78778 7.37863C1.66661 7.83514 1.70579 8.3194 1.89878 8.75049C2.09177 9.18157 2.42686 9.53336 2.84807 9.74706C3.26927 9.96076 3.75106 10.0234 4.21291 9.92457C4.67476 9.82572 5.08869 9.57135 5.38553 9.20397C5.68236 8.83659 5.84412 8.37847 5.84375 7.90615V2.18057L8.83867 3.07904C8.88223 3.09323 8.92819 3.09857 8.97384 3.09474C9.01949 3.09092 9.06392 3.07801 9.10451 3.05676C9.1451 3.03552 9.18104 3.00638 9.21021 2.97106C9.23938 2.93573 9.26119 2.89493 9.27436 2.85105C9.28754 2.80717 9.29181 2.7611 9.28692 2.71555C9.28204 2.67 9.2681 2.62589 9.24593 2.5858C9.22375 2.54571 9.19378 2.51046 9.15779 2.48212C9.1218 2.45378 9.0805 2.43292 9.03633 2.42076ZM3.78125 9.28115C3.5093 9.28115 3.24346 9.20051 3.01734 9.04942C2.79122 8.89834 2.61499 8.68359 2.51092 8.43234C2.40685 8.18109 2.37962 7.90463 2.43267 7.6379C2.48573 7.37118 2.61668 7.12618 2.80898 6.93388C3.00128 6.74158 3.24628 6.61063 3.513 6.55757C3.77973 6.50452 4.05619 6.53175 4.30744 6.63582C4.55869 6.73989 4.77343 6.91613 4.92452 7.14224C5.07561 7.36836 5.15625 7.6342 5.15625 7.90615C5.15625 8.27083 5.01138 8.62056 4.75352 8.87843C4.49566 9.13629 4.14592 9.28115 3.78125 9.28115Z" fill="#2C2C29"/>
</svg>
